<svg xmlns="http://www.w3.org/2000/svg" width="1200" height="630" viewBox="0 0 1200 630">
  <defs>
    <linearGradient id="bg" x1="0" y1="0" x2="1" y2="1">
      <stop offset="0" stop-color="#06080d"/><stop offset="1" stop-color="#04060a"/>
    </linearGradient>
    <radialGradient id="g1" cx="78%" cy="-5%" r="70%">
      <stop offset="0" stop-color="#7c6cff" stop-opacity="0.35"/><stop offset="1" stop-color="#7c6cff" stop-opacity="0"/>
    </radialGradient>
    <radialGradient id="g2" cx="6%" cy="12%" r="60%">
      <stop offset="0" stop-color="#3ad6c4" stop-opacity="0.28"/><stop offset="1" stop-color="#3ad6c4" stop-opacity="0"/>
    </radialGradient>
    <linearGradient id="acc" x1="0" y1="0" x2="1" y2="0">
      <stop offset="0" stop-color="#54f0dc"/><stop offset="0.6" stop-color="#7c6cff"/><stop offset="1" stop-color="#3ad6c4"/>
    </linearGradient>
  </defs>
  <rect width="1200" height="630" fill="url(#bg)"/>
  <g opacity="0.9"><line x1="781.1" y1="45.6" x2="657.3" y2="39.6" stroke="#3ad6c4" stroke-opacity="0.05" stroke-width="1"/><line x1="643.1" y1="230.4" x2="692.5" y2="249.9" stroke="#3ad6c4" stroke-opacity="0.19" stroke-width="1"/><line x1="643.1" y1="230.4" x2="766.7" y2="234.6" stroke="#3ad6c4" stroke-opacity="0.05" stroke-width="1"/><line x1="643.1" y1="230.4" x2="543.8" y2="188.9" stroke="#3ad6c4" stroke-opacity="0.08" stroke-width="1"/><line x1="643.1" y1="230.4" x2="695.9" y2="287.4" stroke="#3ad6c4" stroke-opacity="0.14" stroke-width="1"/><line x1="69.6" y1="319.7" x2="45.0" y2="273.2" stroke="#3ad6c4" stroke-opacity="0.19" stroke-width="1"/><line x1="69.6" y1="319.7" x2="182.4" y2="308.0" stroke="#3ad6c4" stroke-opacity="0.07" stroke-width="1"/><line x1="69.6" y1="319.7" x2="47.0" y2="421.0" stroke="#3ad6c4" stroke-opacity="0.09" stroke-width="1"/><line x1="69.6" y1="319.7" x2="72.8" y2="441.9" stroke="#3ad6c4" stroke-opacity="0.06" stroke-width="1"/><line x1="69.6" y1="319.7" x2="27.1" y2="290.9" stroke="#3ad6c4" stroke-opacity="0.20" stroke-width="1"/><line x1="69.6" y1="319.7" x2="96.7" y2="283.0" stroke="#3ad6c4" stroke-opacity="0.21" stroke-width="1"/><line x1="45.0" y1="273.2" x2="71.5" y2="129.8" stroke="#3ad6c4" stroke-opacity="0.01" stroke-width="1"/><line x1="45.0" y1="273.2" x2="182.4" y2="308.0" stroke="#3ad6c4" stroke-opacity="0.02" stroke-width="1"/><line x1="45.0" y1="273.2" x2="47.0" y2="421.0" stroke="#3ad6c4" stroke-opacity="0.00" stroke-width="1"/><line x1="45.0" y1="273.2" x2="27.1" y2="290.9" stroke="#3ad6c4" stroke-opacity="0.25" stroke-width="1"/><line x1="45.0" y1="273.2" x2="96.7" y2="283.0" stroke="#3ad6c4" stroke-opacity="0.19" stroke-width="1"/><line x1="83.8" y1="57.1" x2="148.6" y2="140.6" stroke="#3ad6c4" stroke-opacity="0.09" stroke-width="1"/><line x1="83.8" y1="57.1" x2="173.1" y2="74.2" stroke="#3ad6c4" stroke-opacity="0.12" stroke-width="1"/><line x1="83.8" y1="57.1" x2="71.5" y2="129.8" stroke="#3ad6c4" stroke-opacity="0.15" stroke-width="1"/><line x1="83.8" y1="57.1" x2="201.7" y2="73.8" stroke="#3ad6c4" stroke-opacity="0.06" stroke-width="1"/><line x1="83.8" y1="57.1" x2="155.2" y2="156.0" stroke="#3ad6c4" stroke-opacity="0.06" stroke-width="1"/><line x1="509.4" y1="520.9" x2="370.2" y2="514.2" stroke="#3ad6c4" stroke-opacity="0.02" stroke-width="1"/><line x1="509.4" y1="520.9" x2="630.2" y2="551.3" stroke="#3ad6c4" stroke-opacity="0.05" stroke-width="1"/><line x1="509.4" y1="520.9" x2="501.7" y2="477.0" stroke="#3ad6c4" stroke-opacity="0.21" stroke-width="1"/><line x1="509.4" y1="520.9" x2="568.9" y2="418.4" stroke="#3ad6c4" stroke-opacity="0.06" stroke-width="1"/><line x1="509.4" y1="520.9" x2="462.9" y2="421.3" stroke="#3ad6c4" stroke-opacity="0.08" stroke-width="1"/><line x1="509.4" y1="520.9" x2="469.1" y2="549.0" stroke="#3ad6c4" stroke-opacity="0.20" stroke-width="1"/><line x1="148.6" y1="140.6" x2="173.1" y2="74.2" stroke="#3ad6c4" stroke-opacity="0.16" stroke-width="1"/><line x1="148.6" y1="140.6" x2="71.5" y2="129.8" stroke="#3ad6c4" stroke-opacity="0.14" stroke-width="1"/><line x1="148.6" y1="140.6" x2="201.7" y2="73.8" stroke="#3ad6c4" stroke-opacity="0.13" stroke-width="1"/><line x1="148.6" y1="140.6" x2="155.2" y2="156.0" stroke="#3ad6c4" stroke-opacity="0.27" stroke-width="1"/><line x1="752.9" y1="597.1" x2="630.2" y2="551.3" stroke="#3ad6c4" stroke-opacity="0.04" stroke-width="1"/><line x1="752.9" y1="597.1" x2="776.6" y2="625.7" stroke="#3ad6c4" stroke-opacity="0.23" stroke-width="1"/><line x1="752.9" y1="597.1" x2="659.3" y2="556.5" stroke="#3ad6c4" stroke-opacity="0.10" stroke-width="1"/><line x1="692.5" y1="249.9" x2="766.7" y2="234.6" stroke="#3ad6c4" stroke-opacity="0.15" stroke-width="1"/><line x1="692.5" y1="249.9" x2="816.5" y2="269.4" stroke="#3ad6c4" stroke-opacity="0.05" stroke-width="1"/><line x1="692.5" y1="249.9" x2="695.9" y2="287.4" stroke="#3ad6c4" stroke-opacity="0.22" stroke-width="1"/><line x1="1171.5" y1="29.3" x2="1176.2" y2="74.4" stroke="#3ad6c4" stroke-opacity="0.21" stroke-width="1"/><line x1="1030.2" y1="182.5" x2="1050.6" y2="197.7" stroke="#3ad6c4" stroke-opacity="0.25" stroke-width="1"/><line x1="1030.2" y1="182.5" x2="986.3" y2="179.3" stroke="#3ad6c4" stroke-opacity="0.21" stroke-width="1"/><line x1="173.1" y1="74.2" x2="71.5" y2="129.8" stroke="#3ad6c4" stroke-opacity="0.07" stroke-width="1"/><line x1="173.1" y1="74.2" x2="201.7" y2="73.8" stroke="#3ad6c4" stroke-opacity="0.24" stroke-width="1"/><line x1="173.1" y1="74.2" x2="155.2" y2="156.0" stroke="#3ad6c4" stroke-opacity="0.13" stroke-width="1"/><line x1="370.2" y1="514.2" x2="377.0" y2="368.9" stroke="#3ad6c4" stroke-opacity="0.01" stroke-width="1"/><line x1="370.2" y1="514.2" x2="501.7" y2="477.0" stroke="#3ad6c4" stroke-opacity="0.03" stroke-width="1"/><line x1="370.2" y1="514.2" x2="462.9" y2="421.3" stroke="#3ad6c4" stroke-opacity="0.04" stroke-width="1"/><line x1="370.2" y1="514.2" x2="469.1" y2="549.0" stroke="#3ad6c4" stroke-opacity="0.09" stroke-width="1"/><line x1="216.9" y1="366.4" x2="292.9" y2="361.9" stroke="#3ad6c4" stroke-opacity="0.15" stroke-width="1"/><line x1="216.9" y1="366.4" x2="182.4" y2="308.0" stroke="#3ad6c4" stroke-opacity="0.16" stroke-width="1"/><line x1="216.9" y1="366.4" x2="96.7" y2="283.0" stroke="#3ad6c4" stroke-opacity="0.01" stroke-width="1"/><line x1="766.7" y1="234.6" x2="816.5" y2="269.4" stroke="#3ad6c4" stroke-opacity="0.18" stroke-width="1"/><line x1="766.7" y1="234.6" x2="875.3" y2="181.4" stroke="#3ad6c4" stroke-opacity="0.06" stroke-width="1"/><line x1="766.7" y1="234.6" x2="695.9" y2="287.4" stroke="#3ad6c4" stroke-opacity="0.12" stroke-width="1"/><line x1="71.5" y1="129.8" x2="201.7" y2="73.8" stroke="#3ad6c4" stroke-opacity="0.02" stroke-width="1"/><line x1="71.5" y1="129.8" x2="155.2" y2="156.0" stroke="#3ad6c4" stroke-opacity="0.12" stroke-width="1"/><line x1="816.5" y1="269.4" x2="875.3" y2="181.4" stroke="#3ad6c4" stroke-opacity="0.09" stroke-width="1"/><line x1="816.5" y1="269.4" x2="917.5" y2="361.0" stroke="#3ad6c4" stroke-opacity="0.03" stroke-width="1"/><line x1="816.5" y1="269.4" x2="834.4" y2="374.5" stroke="#3ad6c4" stroke-opacity="0.09" stroke-width="1"/><line x1="816.5" y1="269.4" x2="695.9" y2="287.4" stroke="#3ad6c4" stroke-opacity="0.06" stroke-width="1"/><line x1="377.0" y1="368.9" x2="292.9" y2="361.9" stroke="#3ad6c4" stroke-opacity="0.13" stroke-width="1"/><line x1="377.0" y1="368.9" x2="462.9" y2="421.3" stroke="#3ad6c4" stroke-opacity="0.10" stroke-width="1"/><line x1="953.3" y1="440.4" x2="917.5" y2="361.0" stroke="#3ad6c4" stroke-opacity="0.13" stroke-width="1"/><line x1="953.3" y1="440.4" x2="834.4" y2="374.5" stroke="#3ad6c4" stroke-opacity="0.03" stroke-width="1"/><line x1="292.9" y1="361.9" x2="182.4" y2="308.0" stroke="#3ad6c4" stroke-opacity="0.05" stroke-width="1"/><line x1="630.2" y1="551.3" x2="501.7" y2="477.0" stroke="#3ad6c4" stroke-opacity="0.00" stroke-width="1"/><line x1="630.2" y1="551.3" x2="568.9" y2="418.4" stroke="#3ad6c4" stroke-opacity="0.01" stroke-width="1"/><line x1="630.2" y1="551.3" x2="659.3" y2="556.5" stroke="#3ad6c4" stroke-opacity="0.24" stroke-width="1"/><line x1="875.3" y1="181.4" x2="986.3" y2="179.3" stroke="#3ad6c4" stroke-opacity="0.08" stroke-width="1"/><line x1="501.7" y1="477.0" x2="568.9" y2="418.4" stroke="#3ad6c4" stroke-opacity="0.12" stroke-width="1"/><line x1="501.7" y1="477.0" x2="462.9" y2="421.3" stroke="#3ad6c4" stroke-opacity="0.16" stroke-width="1"/><line x1="501.7" y1="477.0" x2="469.1" y2="549.0" stroke="#3ad6c4" stroke-opacity="0.14" stroke-width="1"/><line x1="182.4" y1="308.0" x2="96.7" y2="283.0" stroke="#3ad6c4" stroke-opacity="0.12" stroke-width="1"/><line x1="47.0" y1="421.0" x2="72.8" y2="441.9" stroke="#3ad6c4" stroke-opacity="0.23" stroke-width="1"/><line x1="47.0" y1="421.0" x2="27.1" y2="290.9" stroke="#3ad6c4" stroke-opacity="0.04" stroke-width="1"/><line x1="47.0" y1="421.0" x2="70.7" y2="484.0" stroke="#3ad6c4" stroke-opacity="0.17" stroke-width="1"/><line x1="47.0" y1="421.0" x2="96.7" y2="283.0" stroke="#3ad6c4" stroke-opacity="0.01" stroke-width="1"/><line x1="917.5" y1="361.0" x2="834.4" y2="374.5" stroke="#3ad6c4" stroke-opacity="0.13" stroke-width="1"/><line x1="1050.6" y1="197.7" x2="986.3" y2="179.3" stroke="#3ad6c4" stroke-opacity="0.17" stroke-width="1"/><line x1="568.9" y1="418.4" x2="462.9" y2="421.3" stroke="#3ad6c4" stroke-opacity="0.09" stroke-width="1"/><line x1="72.8" y1="441.9" x2="70.7" y2="484.0" stroke="#3ad6c4" stroke-opacity="0.22" stroke-width="1"/><line x1="776.6" y1="625.7" x2="659.3" y2="556.5" stroke="#3ad6c4" stroke-opacity="0.03" stroke-width="1"/><line x1="462.9" y1="421.3" x2="469.1" y2="549.0" stroke="#3ad6c4" stroke-opacity="0.04" stroke-width="1"/><line x1="27.1" y1="290.9" x2="96.7" y2="283.0" stroke="#3ad6c4" stroke-opacity="0.16" stroke-width="1"/><line x1="201.7" y1="73.8" x2="155.2" y2="156.0" stroke="#3ad6c4" stroke-opacity="0.11" stroke-width="1"/><line x1="155.2" y1="156.0" x2="96.7" y2="283.0" stroke="#3ad6c4" stroke-opacity="0.02" stroke-width="1"/><circle cx="388.6" cy="95.0" r="2.7" fill="#a0c8d2" fill-opacity="0.5"/><circle cx="781.1" cy="45.6" r="2.8" fill="#a0c8d2" fill-opacity="0.5"/><circle cx="643.1" cy="230.4" r="1.8" fill="#a0c8d2" fill-opacity="0.5"/><circle cx="69.6" cy="319.7" r="2.1" fill="#a0c8d2" fill-opacity="0.5"/><circle cx="45.0" cy="273.2" r="2.0" fill="#a0c8d2" fill-opacity="0.5"/><circle cx="83.8" cy="57.1" r="2.8" fill="#a0c8d2" fill-opacity="0.5"/><circle cx="509.4" cy="520.9" r="2.9" fill="#a0c8d2" fill-opacity="0.5"/><circle cx="148.6" cy="140.6" r="1.6" fill="#a0c8d2" fill-opacity="0.5"/><circle cx="752.9" cy="597.1" r="1.7" fill="#a0c8d2" fill-opacity="0.5"/><circle cx="692.5" cy="249.9" r="1.8" fill="#a0c8d2" fill-opacity="0.5"/><circle cx="1171.5" cy="29.3" r="1.8" fill="#a0c8d2" fill-opacity="0.5"/><circle cx="1030.2" cy="182.5" r="2.2" fill="#a0c8d2" fill-opacity="0.5"/><circle cx="173.1" cy="74.2" r="2.3" fill="#a0c8d2" fill-opacity="0.5"/><circle cx="370.2" cy="514.2" r="1.8" fill="#a0c8d2" fill-opacity="0.5"/><circle cx="216.9" cy="366.4" r="1.4" fill="#a0c8d2" fill-opacity="0.5"/><circle cx="766.7" cy="234.6" r="2.1" fill="#a0c8d2" fill-opacity="0.5"/><circle cx="657.3" cy="39.6" r="2.0" fill="#a0c8d2" fill-opacity="0.5"/><circle cx="71.5" cy="129.8" r="2.3" fill="#a0c8d2" fill-opacity="0.5"/><circle cx="816.5" cy="269.4" r="2.9" fill="#a0c8d2" fill-opacity="0.5"/><circle cx="377.0" cy="368.9" r="2.5" fill="#a0c8d2" fill-opacity="0.5"/><circle cx="543.8" cy="188.9" r="2.2" fill="#a0c8d2" fill-opacity="0.5"/><circle cx="953.3" cy="440.4" r="2.4" fill="#a0c8d2" fill-opacity="0.5"/><circle cx="292.9" cy="361.9" r="2.5" fill="#a0c8d2" fill-opacity="0.5"/><circle cx="630.2" cy="551.3" r="1.5" fill="#a0c8d2" fill-opacity="0.5"/><circle cx="875.3" cy="181.4" r="2.8" fill="#a0c8d2" fill-opacity="0.5"/><circle cx="1176.2" cy="74.4" r="2.6" fill="#a0c8d2" fill-opacity="0.5"/><circle cx="501.7" cy="477.0" r="2.8" fill="#a0c8d2" fill-opacity="0.5"/><circle cx="182.4" cy="308.0" r="2.7" fill="#a0c8d2" fill-opacity="0.5"/><circle cx="47.0" cy="421.0" r="2.0" fill="#a0c8d2" fill-opacity="0.5"/><circle cx="917.5" cy="361.0" r="2.0" fill="#a0c8d2" fill-opacity="0.5"/><circle cx="1050.6" cy="197.7" r="1.6" fill="#a0c8d2" fill-opacity="0.5"/><circle cx="834.4" cy="374.5" r="2.4" fill="#a0c8d2" fill-opacity="0.5"/><circle cx="695.9" cy="287.4" r="1.5" fill="#a0c8d2" fill-opacity="0.5"/><circle cx="1008.0" cy="595.1" r="1.5" fill="#a0c8d2" fill-opacity="0.5"/><circle cx="568.9" cy="418.4" r="1.7" fill="#a0c8d2" fill-opacity="0.5"/><circle cx="72.8" cy="441.9" r="1.7" fill="#a0c8d2" fill-opacity="0.5"/><circle cx="776.6" cy="625.7" r="1.9" fill="#a0c8d2" fill-opacity="0.5"/><circle cx="986.3" cy="179.3" r="1.5" fill="#a0c8d2" fill-opacity="0.5"/><circle cx="462.9" cy="421.3" r="1.4" fill="#a0c8d2" fill-opacity="0.5"/><circle cx="27.1" cy="290.9" r="1.6" fill="#a0c8d2" fill-opacity="0.5"/><circle cx="201.7" cy="73.8" r="1.6" fill="#a0c8d2" fill-opacity="0.5"/><circle cx="70.7" cy="484.0" r="2.0" fill="#a0c8d2" fill-opacity="0.5"/><circle cx="155.2" cy="156.0" r="1.4" fill="#a0c8d2" fill-opacity="0.5"/><circle cx="469.1" cy="549.0" r="2.8" fill="#a0c8d2" fill-opacity="0.5"/><circle cx="96.7" cy="283.0" r="2.4" fill="#a0c8d2" fill-opacity="0.5"/><circle cx="659.3" cy="556.5" r="1.6" fill="#a0c8d2" fill-opacity="0.5"/></g>
  <rect width="1200" height="630" fill="url(#g1)"/>
  <rect width="1200" height="630" fill="url(#g2)"/>

  <!-- logo + wordmark -->
  <g transform="translate(80,76)">
    <g transform="scale(1.45)">
      <path d="M16 6 16 16 6 24M16 16 26 24" stroke="#3ad6c4" stroke-width="1.6" opacity=".6" fill="none"/>
      <circle cx="16" cy="6" r="3.4" fill="#54f0dc"/>
      <circle cx="6" cy="24" r="3.4" fill="#7c6cff"/>
      <circle cx="26" cy="24" r="3.4" fill="#3ad6c4"/>
      <circle cx="16" cy="16" r="2.6" fill="#e8edf4"/>
    </g>
    <text x="58" y="33" font-family="Liberation Sans, Arial, sans-serif" font-size="30" font-weight="700" fill="#e8edf4" letter-spacing="-0.5">Nodal<tspan fill="#3ad6c4">.</tspan></text>
  </g>

  <!-- headline -->
  <text x="80" y="320" font-family="Liberation Sans, Arial, sans-serif" font-size="82" font-weight="700" fill="#e8edf4" letter-spacing="-2">One terminal.</text>
  <text x="80" y="410" font-family="Liberation Sans, Arial, sans-serif" font-size="82" font-weight="700" fill="url(#acc)" letter-spacing="-2">Every broker.</text>

  <!-- subline -->
  <text x="82" y="470" font-family="Liberation Sans, Arial, sans-serif" font-size="27" fill="#8a93a3">A Bloomberg-style multi-broker trading terminal,</text>
  <text x="82" y="506" font-family="Liberation Sans, Arial, sans-serif" font-size="27" fill="#8a93a3">powered by the Market DNA regime engine.</text>

  <!-- footer row -->
  <line x1="80" y1="556" x2="1120" y2="556" stroke="#ffffff" stroke-opacity="0.08"/>
  <text x="80" y="592" font-family="Liberation Sans, Arial, sans-serif" font-size="24" font-weight="700" fill="#3ad6c4" letter-spacing="0.5">nodal.trade</text>
  <text x="1120" y="592" text-anchor="end" font-family="Liberation Sans, Arial, sans-serif" font-size="20" fill="#8a93a3">RoboMarkets · eToro · Trading 212</text>
</svg>